<mxfile host="app.diagrams.net" modified="2021-08-31T09:38:42.906Z" agent="5.0 (Linux; U; Android 11; zh-cn; M2011K2C Build/RKQ1.200928.002) AppleWebKit/537.36 (KHTML, like Gecko) Version/4.0 Chrome/89.0.4389.116 Mobile Safari/537.36 XiaoMi/MiuiBrowser/15.3.4" etag="8J_x5KBKZtBha5xYURIA" version="15.0.3" type="github">
  <diagram name="Page-1" id="2ca16b54-16f6-2749-3443-fa8db7711227">
    <mxGraphModel dx="378" dy="634" grid="1" gridSize="10" guides="1" tooltips="1" connect="1" arrows="1" fold="1" page="1" pageScale="1" pageWidth="1100" pageHeight="850" background="none" math="0" shadow="0">
      <root>
        <mxCell id="0" />
        <mxCell id="1" parent="0" />
        <mxCell id="2ed32ef02a7f4228-2" value="&lt;div style=&quot;box-sizing: border-box ; width: 100% ; background: #e4e4e4 ; padding: 2px&quot;&gt;hx_content_4.0&lt;/div&gt;&lt;table style=&quot;width: 100% ; font-size: 1em&quot; cellpadding=&quot;2&quot; cellspacing=&quot;0&quot;&gt;&lt;tbody&gt;&lt;tr&gt;&lt;td&gt;PK&lt;/td&gt;&lt;td&gt;content_id&lt;/td&gt;&lt;/tr&gt;&lt;tr&gt;&lt;td&gt;&lt;br&gt;&lt;/td&gt;&lt;td&gt;content_name&lt;/td&gt;&lt;/tr&gt;&lt;tr&gt;&lt;td&gt;&lt;/td&gt;&lt;td&gt;link_type&lt;/td&gt;&lt;/tr&gt;&lt;tr&gt;&lt;td&gt;&lt;br&gt;&lt;/td&gt;&lt;td&gt;content_category&lt;/td&gt;&lt;/tr&gt;&lt;tr&gt;&lt;td&gt;&lt;br&gt;&lt;/td&gt;&lt;td&gt;jump_url&lt;/td&gt;&lt;/tr&gt;&lt;tr&gt;&lt;td&gt;&lt;br&gt;&lt;/td&gt;&lt;td&gt;jump_permission&lt;/td&gt;&lt;/tr&gt;&lt;/tbody&gt;&lt;/table&gt;" style="verticalAlign=top;align=left;overflow=fill;html=1;rounded=0;shadow=0;comic=0;labelBackgroundColor=none;strokeWidth=1;fontFamily=Verdana;fontSize=12" parent="1" vertex="1">
          <mxGeometry x="460" y="315" width="180" height="130" as="geometry" />
        </mxCell>
        <mxCell id="2ed32ef02a7f4228-7" value="&lt;div style=&quot;box-sizing: border-box ; width: 100% ; background: #e4e4e4 ; padding: 2px&quot;&gt;hx_moudle_4.0&lt;/div&gt;&lt;table style=&quot;width: 100% ; font-size: 1em&quot; cellpadding=&quot;2&quot; cellspacing=&quot;0&quot;&gt;&lt;tbody&gt;&lt;tr&gt;&lt;td&gt;PK&lt;/td&gt;&lt;td&gt;moudle_id&lt;/td&gt;&lt;/tr&gt;&lt;tr&gt;&lt;td&gt;FK1&lt;/td&gt;&lt;td&gt;page_id&lt;/td&gt;&lt;/tr&gt;&lt;tr&gt;&lt;td&gt;&lt;/td&gt;&lt;td&gt;moudle_order&lt;/td&gt;&lt;/tr&gt;&lt;tr&gt;&lt;td&gt;&lt;br&gt;&lt;/td&gt;&lt;td&gt;moudle_type&lt;br&gt;title&lt;br&gt;subtitle&lt;/td&gt;&lt;/tr&gt;&lt;tr&gt;&lt;td&gt;FK1&lt;br&gt;&lt;/td&gt;&lt;td&gt;moudle_name&lt;br&gt;content_id&lt;br&gt;&lt;br&gt;&lt;/td&gt;&lt;/tr&gt;&lt;/tbody&gt;&lt;/table&gt;" style="verticalAlign=top;align=left;overflow=fill;html=1;rounded=0;shadow=0;comic=0;labelBackgroundColor=none;strokeWidth=1;fontFamily=Verdana;fontSize=12" parent="1" vertex="1">
          <mxGeometry x="460" y="530" width="170" height="160" as="geometry" />
        </mxCell>
        <mxCell id="2ed32ef02a7f4228-10" value="&lt;div style=&quot;box-sizing: border-box ; width: 100% ; background: #e4e4e4 ; padding: 2px&quot;&gt;hx_page_4.0&lt;/div&gt;&lt;table style=&quot;width: 100% ; font-size: 1em&quot; cellpadding=&quot;2&quot; cellspacing=&quot;0&quot;&gt;&lt;tbody&gt;&lt;tr&gt;&lt;td&gt;PK&lt;/td&gt;&lt;td&gt;page_id&lt;/td&gt;&lt;/tr&gt;&lt;tr&gt;&lt;td&gt;&lt;br&gt;&lt;/td&gt;&lt;td&gt;page_name&lt;/td&gt;&lt;/tr&gt;&lt;tr&gt;&lt;td&gt;&lt;/td&gt;&lt;td&gt;page_type&lt;/td&gt;&lt;/tr&gt;&lt;tr&gt;&lt;td&gt;&lt;br&gt;&lt;/td&gt;&lt;td&gt;release_state&lt;/td&gt;&lt;/tr&gt;&lt;tr&gt;&lt;td&gt;&lt;br&gt;&lt;/td&gt;&lt;td&gt;foreignKey&lt;br&gt;&lt;/td&gt;&lt;/tr&gt;&lt;tr&gt;&lt;td&gt;&lt;br&gt;&lt;/td&gt;&lt;td&gt;fieldname&lt;br&gt;&lt;/td&gt;&lt;/tr&gt;&lt;tr&gt;&lt;td&gt;&lt;br&gt;&lt;/td&gt;&lt;td&gt;version_start&lt;br&gt;version_end&lt;/td&gt;&lt;/tr&gt;&lt;tr&gt;&lt;td&gt;&lt;br&gt;&lt;/td&gt;&lt;td&gt;&lt;br&gt;&lt;/td&gt;&lt;/tr&gt;&lt;tr&gt;&lt;td&gt;&lt;br&gt;&lt;/td&gt;&lt;td&gt;&lt;br&gt;&lt;/td&gt;&lt;/tr&gt;&lt;tr&gt;&lt;td&gt;&lt;br&gt;&lt;/td&gt;&lt;td&gt;&lt;br&gt;&lt;/td&gt;&lt;/tr&gt;&lt;tr&gt;&lt;td&gt;&lt;br&gt;&lt;/td&gt;&lt;td&gt;&lt;br&gt;&lt;/td&gt;&lt;/tr&gt;&lt;tr&gt;&lt;td&gt;&lt;br&gt;&lt;/td&gt;&lt;td&gt;&lt;br&gt;&lt;/td&gt;&lt;/tr&gt;&lt;/tbody&gt;&lt;/table&gt;" style="verticalAlign=top;align=left;overflow=fill;html=1;rounded=0;shadow=0;comic=0;labelBackgroundColor=none;strokeWidth=1;fontFamily=Verdana;fontSize=12" parent="1" vertex="1">
          <mxGeometry x="720" y="295" width="180" height="170" as="geometry" />
        </mxCell>
        <mxCell id="2ed32ef02a7f4228-11" value="&lt;div style=&quot;box-sizing: border-box ; width: 100% ; background: #e4e4e4 ; padding: 2px&quot;&gt;hx_image_4.0&lt;/div&gt;&lt;table style=&quot;width: 100% ; font-size: 1em&quot; cellpadding=&quot;2&quot; cellspacing=&quot;0&quot;&gt;&lt;tbody&gt;&lt;tr&gt;&lt;td&gt;PK&lt;/td&gt;&lt;td&gt;image_id&lt;/td&gt;&lt;/tr&gt;&lt;tr&gt;&lt;td&gt;FK1&lt;/td&gt;&lt;td&gt;content_id&lt;/td&gt;&lt;/tr&gt;&lt;tr&gt;&lt;td&gt;&lt;/td&gt;&lt;td&gt;image_path&lt;br&gt;image_type&lt;br&gt;image_high&lt;br&gt;image_weight&lt;br&gt;&lt;br&gt;&lt;/td&gt;&lt;/tr&gt;&lt;/tbody&gt;&lt;/table&gt;" style="verticalAlign=top;align=left;overflow=fill;html=1;rounded=0;shadow=0;comic=0;labelBackgroundColor=none;strokeWidth=1;fontFamily=Verdana;fontSize=12" parent="1" vertex="1">
          <mxGeometry x="460" y="90" width="180" height="130" as="geometry" />
        </mxCell>
        <mxCell id="2ed32ef02a7f4228-3" value="&lt;div style=&quot;box-sizing: border-box ; width: 100% ; background: #e4e4e4 ; padding: 2px&quot;&gt;hx_moudle_detaile_4.0&lt;/div&gt;&lt;table style=&quot;width: 100% ; font-size: 1em&quot; cellpadding=&quot;2&quot; cellspacing=&quot;0&quot;&gt;&lt;tbody&gt;&lt;tr&gt;&lt;td&gt;PK&lt;/td&gt;&lt;td&gt;detaile_id&lt;/td&gt;&lt;/tr&gt;&lt;tr&gt;&lt;td&gt;FK1&lt;/td&gt;&lt;td&gt;moudle_id&lt;/td&gt;&lt;/tr&gt;&lt;tr&gt;&lt;td&gt;FK1&lt;/td&gt;&lt;td&gt;content_id&lt;/td&gt;&lt;/tr&gt;&lt;tr&gt;&lt;td&gt;&lt;br&gt;&lt;/td&gt;&lt;td&gt;start_time&lt;br&gt;end_time&lt;br&gt;title&lt;br&gt;subtitle&lt;br&gt;detaile_order&lt;br&gt;is_default&lt;br&gt;is_show&lt;br&gt;is_dynamic&lt;br&gt;words_content&lt;br&gt;card_name&lt;/td&gt;&lt;/tr&gt;&lt;/tbody&gt;&lt;/table&gt;" style="verticalAlign=top;align=left;overflow=fill;html=1;rounded=0;shadow=0;comic=0;labelBackgroundColor=none;strokeWidth=1;fontFamily=Verdana;fontSize=12" parent="1" vertex="1">
          <mxGeometry x="210" y="260" width="180" height="240" as="geometry" />
        </mxCell>
        <mxCell id="sPQpU8ZhXfvhH-oP18oT-5" value="" style="edgeStyle=entityRelationEdgeStyle;fontSize=12;html=1;endArrow=ERzeroToMany;startArrow=ERmandOne;entryX=1;entryY=1;entryDx=0;entryDy=0;" edge="1" parent="1" source="2ed32ef02a7f4228-2" target="2ed32ef02a7f4228-11">
          <mxGeometry width="100" height="100" relative="1" as="geometry">
            <mxPoint x="565" y="310" as="sourcePoint" />
            <mxPoint x="630" y="210" as="targetPoint" />
          </mxGeometry>
        </mxCell>
        <mxCell id="sPQpU8ZhXfvhH-oP18oT-7" value="" style="edgeStyle=entityRelationEdgeStyle;fontSize=12;html=1;endArrow=ERzeroToMany;startArrow=ERmandOne;entryX=1;entryY=0.25;entryDx=0;entryDy=0;" edge="1" parent="1" source="2ed32ef02a7f4228-2" target="2ed32ef02a7f4228-3">
          <mxGeometry width="100" height="100" relative="1" as="geometry">
            <mxPoint x="440" y="390" as="sourcePoint" />
            <mxPoint x="540" y="290" as="targetPoint" />
          </mxGeometry>
        </mxCell>
        <mxCell id="sPQpU8ZhXfvhH-oP18oT-8" value="" style="edgeStyle=entityRelationEdgeStyle;fontSize=12;html=1;endArrow=ERzeroToMany;startArrow=ERmandOne;exitX=0;exitY=0.5;exitDx=0;exitDy=0;" edge="1" parent="1" source="2ed32ef02a7f4228-7" target="2ed32ef02a7f4228-3">
          <mxGeometry width="100" height="100" relative="1" as="geometry">
            <mxPoint x="370" y="630" as="sourcePoint" />
            <mxPoint x="340" y="500" as="targetPoint" />
          </mxGeometry>
        </mxCell>
        <mxCell id="sPQpU8ZhXfvhH-oP18oT-9" value="" style="edgeStyle=entityRelationEdgeStyle;fontSize=12;html=1;endArrow=ERzeroToMany;startArrow=ERmandOne;entryX=1;entryY=0.125;entryDx=0;entryDy=0;entryPerimeter=0;" edge="1" parent="1" target="2ed32ef02a7f4228-7">
          <mxGeometry width="100" height="100" relative="1" as="geometry">
            <mxPoint x="640" y="413" as="sourcePoint" />
            <mxPoint x="640" y="580" as="targetPoint" />
          </mxGeometry>
        </mxCell>
        <mxCell id="sPQpU8ZhXfvhH-oP18oT-10" value="" style="edgeStyle=entityRelationEdgeStyle;fontSize=12;html=1;endArrow=ERzeroToMany;startArrow=ERmandOne;entryX=1;entryY=0.625;entryDx=0;entryDy=0;entryPerimeter=0;" edge="1" parent="1" source="2ed32ef02a7f4228-10" target="2ed32ef02a7f4228-7">
          <mxGeometry width="100" height="100" relative="1" as="geometry">
            <mxPoint x="820" y="480" as="sourcePoint" />
            <mxPoint x="830" y="515" as="targetPoint" />
          </mxGeometry>
        </mxCell>
      </root>
    </mxGraphModel>
  </diagram>
</mxfile>
